<svg width="128" height="128" viewBox="0 0 128 128" fill="none" xmlns="http://www.w3.org/2000/svg">
<rect width="128" height="128" rx="32" fill="white"/>
<path d="M42.6322 38.5275C42.6322 38.4452 42.6821 38.2793 42.8577 38.0717C42.9503 37.9623 43.1831 37.9464 51.4769 38.2544C59.7706 38.5624 76.1523 39.2208 87.2134 39.992C98.2745 40.7632 103.519 41.6273 106.745 42.2577C109.971 42.888 111.019 43.2583 111.959 43.7166C113.78 44.6044 114.921 45.7959 115.601 46.8738C116.237 47.8807 116.086 49.1202 115.336 50.6109C114.859 51.5576 113.486 52.5954 110.721 54.2376C107.956 55.8798 103.661 58.0196 88.2131 63.2162C72.7652 68.4128 46.2948 76.6014 31.9093 80.9433C17.5239 85.2851 16.0256 85.532 15.004 85.6592C13.9824 85.7864 13.483 85.7864 13.2257 85.7246C12.9684 85.6629 12.9684 85.5395 13.0433 85.3524C13.2228 84.9044 13.9219 84.2938 15.8523 83.2594C17.2291 82.5217 19.6306 81.649 26.159 80.0093C32.6873 78.3696 43.3254 76.0652 54.8239 74.3844C66.3224 72.7035 78.3589 71.7159 85.059 71.2689C91.7591 70.8219 92.758 70.9453 93.2226 71.1118C93.6872 71.2782 93.5874 71.484 93.2362 71.8163C92.8851 72.1486 92.2858 72.6012 89.7046 73.6368C87.1234 74.6724 82.5785 76.2772 77.2155 77.9269C71.8526 79.5766 65.8093 81.2226 62.3715 82.2351C58.9337 83.2476 58.2844 83.5768 57.925 83.8698C57.5655 84.1628 57.5156 84.4097 57.8644 84.6192C58.2133 84.8287 58.9624 84.9933 66.3156 85.1398C73.6687 85.2863 87.6031 85.4098 94.9563 85.5145C102.309 85.6193 102.659 85.7016 102.839 85.8057C103.019 85.9098 103.019 86.0332 101.271 86.4466C99.5231 86.86 96.0271 87.5595 93.9513 88.0227C91.2991 88.6146 90.4605 89.1094 90.0065 89.4829C89.8257 89.6316 89.8521 89.7741 90.002 89.8582C90.4515 89.9835 91.4594 90.0259 92.5938 89.9848C93.0289 89.9436 93.1787 89.8613 93.4844 89.7766" stroke="black" stroke-width="2" stroke-linecap="round"/>
</svg>
